<svg width="20" height="20" viewBox="0 0 20 20" fill="none" xmlns="http://www.w3.org/2000/svg">
<path d="M0 9.6C0 5.0745 0 2.81177 1.40589 1.40589C2.81177 0 5.0745 0 9.6 0H10.4C14.9255 0 17.1882 0 18.5941 1.40589C20 2.81177 20 5.0745 20 9.6V10.4C20 14.9255 20 17.1882 18.5941 18.5941C17.1882 20 14.9255 20 10.4 20H9.6C5.0745 20 2.81177 20 1.40589 18.5941C0 17.1882 0 14.9255 0 10.4V9.6Z" fill="black"/>
<path d="M10.6075 14.4C5.96093 14.4 3.31063 11.2468 3.2002 6H5.52774C5.60419 9.85105 7.32008 11.4823 8.67923 11.8186V6H10.8709V9.32132C12.2131 9.17838 13.6231 7.66486 14.0988 6H16.2904C15.9252 8.05165 14.3961 9.56517 13.3088 10.1874C14.3961 10.6919 16.1376 12.012 16.8002 14.4H14.3876C13.8694 12.8024 12.5784 11.5664 10.8709 11.3982V14.4H10.6075Z" fill="white"/>
</svg>
