<svg width="40" height="40" viewBox="0 0 40 40" fill="none" xmlns="http://www.w3.org/2000/svg">
<path d="M0 19.2C0 10.149 0 5.62355 2.81177 2.81177C5.62355 0 10.149 0 19.2 0H20.8C29.851 0 34.3764 0 37.1882 2.81177C40 5.62355 40 10.149 40 19.2V20.8C40 29.851 40 34.3764 37.1882 37.1882C34.3764 40 29.851 40 20.8 40H19.2C10.149 40 5.62355 40 2.81177 37.1882C0 34.3764 0 29.851 0 20.8V19.2Z" fill="black"/>
<path d="M14.7205 27.9847L15.0867 28.1657C16.6127 29.0706 18.3217 29.4929 20.0307 29.4929C25.4019 29.4929 29.7965 25.1492 29.7965 19.8403C29.7965 17.3065 28.7588 14.833 26.9278 13.0231C25.0967 11.2132 22.6552 10.1876 20.0307 10.1876C14.6595 10.1876 10.2648 14.5313 10.3259 19.9006C10.3259 21.7104 10.8752 23.4601 11.7908 24.9682L12.0349 25.3303L11.0584 28.8897L14.7205 27.9847Z" fill="black"/>
<path d="M27.9654 12.0578C25.8902 9.94629 23.0215 8.8 20.0917 8.8C13.8661 8.8 8.86108 13.8073 8.92206 19.9005C8.92206 21.8311 9.47139 23.7014 10.387 25.3905L8.8 31.1218L14.7205 29.6136C16.3685 30.5186 18.1995 30.9409 20.0307 30.9409C26.1954 30.9409 31.2004 25.9335 31.2004 19.8403C31.2004 16.8842 30.0405 14.109 27.9654 12.0578ZM20.0917 29.0707C18.4437 29.0707 16.7958 28.6485 15.3919 27.8038L15.0257 27.6228L11.4856 28.5277L12.4011 25.089L12.157 24.727C9.47139 20.4437 10.7532 14.7726 15.1478 12.1181C19.5424 9.46361 25.2188 10.7306 27.9044 15.0742C30.59 19.4179 29.3082 25.0286 24.9137 27.6831C23.5097 28.588 21.8008 29.0707 20.0917 29.0707ZM25.4629 22.3742L24.7915 22.0726C24.7915 22.0726 23.815 21.6502 23.2046 21.3486C23.1435 21.3486 23.0825 21.2882 23.0215 21.2882C22.8383 21.2882 22.7163 21.3486 22.5942 21.409C22.5942 21.409 22.5332 21.4692 21.6787 22.4345C21.6176 22.5552 21.4956 22.6155 21.3735 22.6155H21.3124C21.2514 22.6155 21.1294 22.5552 21.0683 22.4949L20.7631 22.3742C20.0917 22.0726 19.4814 21.7105 18.993 21.2279C18.871 21.1073 18.6879 20.9866 18.5658 20.866C18.1385 20.4437 17.7113 19.961 17.4062 19.418L17.3451 19.2974C17.2841 19.237 17.2841 19.1767 17.223 19.0561C17.223 18.9354 17.223 18.8148 17.2841 18.7544C17.2841 18.7544 17.5282 18.4528 17.7113 18.2718C17.8334 18.1511 17.8944 17.9702 18.0165 17.8495C18.1385 17.6685 18.1996 17.4272 18.1385 17.2462C18.0775 16.9445 17.3451 15.3156 17.162 14.9537C17.0399 14.7727 16.9179 14.7124 16.7348 14.652H16.0634C15.9412 14.652 15.8192 14.7124 15.6971 14.7124L15.636 14.7727C15.514 14.833 15.3919 14.9537 15.2698 15.014C15.1478 15.1347 15.0867 15.2553 14.9646 15.376C14.5374 15.919 14.2933 16.5826 14.2933 17.2462C14.2933 17.7288 14.4153 18.2115 14.5984 18.6338L14.6595 18.8148C15.2088 19.961 15.9412 20.9866 16.9179 21.8915L17.162 22.1328C17.3451 22.3139 17.5282 22.4345 17.6503 22.6154C18.9321 23.7014 20.3969 24.4857 22.0449 24.908C22.228 24.9683 22.4721 24.9683 22.6553 25.0287H23.2656C23.5708 25.0287 23.937 24.908 24.1812 24.7874C24.3642 24.6667 24.4863 24.6667 24.6084 24.5461L24.7305 24.4253C24.8526 24.3047 24.9746 24.2444 25.0967 24.1238C25.2188 24.0031 25.3408 23.8825 25.4019 23.7617C25.524 23.5204 25.585 23.2188 25.646 22.9172V22.4949C25.646 22.4949 25.5849 22.4345 25.4629 22.3742Z" fill="white"/>
</svg>
