<svg width="50" height="50" viewBox="0 0 50 50" fill="none" xmlns="http://www.w3.org/2000/svg">
<path d="M0 24C0 12.6862 0 7.02944 3.51472 3.51472C7.02944 0 12.6862 0 24 0H26C37.3137 0 42.9705 0 46.4853 3.51472C50 7.02944 50 12.6862 50 24V26C50 37.3137 50 42.9705 46.4853 46.4853C42.9705 50 37.3137 50 26 50H24C12.6862 50 7.02944 50 3.51472 46.4853C0 42.9705 0 37.3137 0 26V24Z" fill="black"/>
<path d="M18.4007 34.9809L18.8584 35.2071C20.7659 36.3383 22.9021 36.8662 25.0384 36.8662C31.7524 36.8662 37.2456 31.4365 37.2456 24.8003C37.2456 21.6331 35.9486 18.5412 33.6598 16.2788C31.3709 14.0164 28.319 12.7345 25.0384 12.7345C18.3244 12.7345 12.8311 18.1641 12.9074 24.8758C12.9074 27.1381 13.5941 29.3251 14.7385 31.2103L15.0436 31.6628L13.823 36.1121L18.4007 34.9809Z" fill="black"/>
<path d="M34.9567 15.0722C32.3627 12.4329 28.7768 11 25.1146 11C17.3326 11 11.0763 17.2591 11.1526 24.8757C11.1526 27.2889 11.8392 29.6267 12.9837 31.7382L11 38.9023L18.4006 37.017C20.4606 38.1482 22.7494 38.6761 25.0384 38.6761C32.7442 38.6761 39.0004 32.4169 39.0004 24.8004C39.0004 21.1052 37.5507 17.6362 34.9567 15.0722ZM25.1146 36.3384C23.0547 36.3384 20.9947 35.8106 19.2399 34.7548L18.7821 34.5285L14.357 35.6597L15.5014 31.3613L15.1963 30.9088C11.8392 25.5546 13.4415 18.4657 18.9347 15.1476C24.428 11.8295 31.5235 13.4132 34.8805 18.8428C38.2374 24.2724 36.6352 31.2857 31.1421 34.6039C29.3871 35.735 27.2509 36.3384 25.1146 36.3384ZM31.8286 27.9678L30.9894 27.5907C30.9894 27.5907 29.7687 27.0628 29.0057 26.6857C28.9294 26.6857 28.8532 26.6103 28.7768 26.6103C28.5479 26.6103 28.3953 26.6857 28.2428 26.7612C28.2428 26.7612 28.1665 26.8365 27.0984 28.0431C27.022 28.1939 26.8694 28.2694 26.7169 28.2694H26.6405C26.5643 28.2694 26.4117 28.1939 26.3354 28.1186L25.9539 27.9678C25.1146 27.5907 24.3517 27.1382 23.7413 26.5349C23.5887 26.3841 23.3598 26.2333 23.2072 26.0825C22.6732 25.5546 22.1391 24.9512 21.7577 24.2725L21.6813 24.1217C21.6051 24.0463 21.6051 23.9709 21.5288 23.8201C21.5288 23.6693 21.5288 23.5185 21.6051 23.443C21.6051 23.443 21.9103 23.0659 22.1391 22.8398C22.2918 22.6889 22.368 22.4627 22.5206 22.3119C22.6732 22.0856 22.7495 21.784 22.6732 21.5577C22.5969 21.1806 21.6813 19.1445 21.4525 18.6921C21.2998 18.4658 21.1474 18.3905 20.9185 18.315H20.0792C19.9265 18.315 19.7741 18.3905 19.6214 18.3905L19.545 18.4658C19.3925 18.5413 19.2399 18.6921 19.0873 18.7675C18.9347 18.9184 18.8584 19.0691 18.7058 19.22C18.1717 19.8987 17.8666 20.7282 17.8666 21.5577C17.8666 22.161 18.0191 22.7643 18.2481 23.2922L18.3244 23.5185C19.0111 24.9512 19.9265 26.2333 21.1474 27.3644L21.4525 27.6661C21.6813 27.8923 21.9103 28.0431 22.0628 28.2693C23.6651 29.6268 25.4961 30.6071 27.5561 31.135C27.785 31.2104 28.0902 31.2104 28.3191 31.2858H29.082C29.4635 31.2858 29.9212 31.135 30.2265 30.9842C30.4553 30.8334 30.6079 30.8334 30.7605 30.6826L30.9131 30.5317C31.0657 30.3809 31.2183 30.3055 31.3709 30.1547C31.5235 30.0039 31.676 29.8531 31.7524 29.7022C31.905 29.4005 31.9812 29.0235 32.0575 28.6465V28.1186C32.0575 28.1186 31.9812 28.0431 31.8286 27.9678Z" fill="white"/>
</svg>
